<?xml version="1.0" encoding="UTF-8"?>
<!DOCTYPE svg PUBLIC "-//W3C//DTD SVG 1.1//EN" "http://www.w3.org/Graphics/SVG/1.1/DTD/svg11.dtd">
<!-- Creator: CorelDRAW 2021 (64-Bit) -->
<svg xmlns="http://www.w3.org/2000/svg" xml:space="preserve" width="800px" height="140px" version="1.1" style="shape-rendering:geometricPrecision; text-rendering:geometricPrecision; image-rendering:optimizeQuality; fill-rule:evenodd; clip-rule:evenodd"
viewBox="0 0 311.999 54.597"
 xmlns:xlink="http://www.w3.org/1999/xlink"
 xmlns:xodm="http://www.corel.com/coreldraw/odm/2003">
 <defs>
  <style type="text/css">
   <![CDATA[
    .fil129 {fill:#0B1F5E}
    .fil128 {fill:#0C1E5C}
    .fil130 {fill:#0C215F}
    .fil131 {fill:#0D2261}
    .fil132 {fill:#0D2262}
    .fil133 {fill:#0D2464}
    .fil134 {fill:#0E2565}
    .fil135 {fill:#0E2667}
    .fil127 {fill:#0F1D5B}
    .fil136 {fill:#0F2868}
    .fil137 {fill:#0F296A}
    .fil138 {fill:#102B6B}
    .fil139 {fill:#102C6C}
    .fil140 {fill:#112D6E}
    .fil141 {fill:#112F6F}
    .fil126 {fill:#121D5A}
    .fil142 {fill:#123071}
    .fil143 {fill:#123172}
    .fil144 {fill:#133374}
    .fil145 {fill:#133475}
    .fil146 {fill:#143777}
    .fil125 {fill:#151D59}
    .fil147 {fill:#153778}
    .fil148 {fill:#15387A}
    .fil149 {fill:#163B7B}
    .fil150 {fill:#173C7D}
    .fil151 {fill:#173D7E}
    .fil124 {fill:#181C58}
    .fil152 {fill:#184080}
    .fil153 {fill:#184081}
    .fil154 {fill:#194183}
    .fil155 {fill:#194484}
    .fil156 {fill:#1A4585}
    .fil123 {fill:#1B1C57}
    .fil157 {fill:#1B4887}
    .fil158 {fill:#1B4988}
    .fil159 {fill:#1C4A8A}
    .fil160 {fill:#1D4D8B}
    .fil161 {fill:#1D4E8D}
    .fil122 {fill:#1E1C56}
    .fil162 {fill:#1E4F8E}
    .fil163 {fill:#1F5290}
    .fil164 {fill:#1F5291}
    .fil165 {fill:#205693}
    .fil121 {fill:#211B55}
    .fil166 {fill:#215794}
    .fil167 {fill:#225896}
    .fil168 {fill:#225B97}
    .fil169 {fill:#235C99}
    .fil120 {fill:#241B54}
    .fil170 {fill:#245D9A}
    .fil171 {fill:#25609C}
    .fil172 {fill:#26619D}
    .fil173 {fill:#26649E}
    .fil119 {fill:#271B53}
    .fil174 {fill:#2765A0}
    .fil175 {fill:#2866A1}
    .fil176 {fill:#296AA3}
    .fil177 {fill:#296BA4}
    .fil118 {fill:#2A1A52}
    .fil178 {fill:#2A6CA6}
    .fil179 {fill:#2B6FA7}
    .fil180 {fill:#2B70A8}
    .fil181 {fill:#2C71A9}
    .fil117 {fill:#2D1A51}
    .fil182 {fill:#2D74AA}
    .fil183 {fill:#2E75AB}
    .fil184 {fill:#2E75AC}
    .fil185 {fill:#2F76AD}
    .fil186 {fill:#2F79AE}
    .fil187 {fill:#2F7AAF}
    .fil116 {fill:#301950}
    .fil188 {fill:#307BB0}
    .fil189 {fill:#317BB1}
    .fil190 {fill:#327FB2}
    .fil191 {fill:#327FB3}
    .fil115 {fill:#33194F}
    .fil192 {fill:#3380B4}
    .fil193 {fill:#3381B5}
    .fil194 {fill:#3484B6}
    .fil195 {fill:#3485B7}
    .fil196 {fill:#3586B8}
    .fil114 {fill:#36194E}
    .fil197 {fill:#3687B9}
    .fil198 {fill:#368ABA}
    .fil199 {fill:#378BBB}
    .fil200 {fill:#378BBC}
    .fil201 {fill:#388CBD}
    .fil113 {fill:#39184D}
    .fil202 {fill:#398FBE}
    .fil203 {fill:#3A90BF}
    .fil204 {fill:#3A91C0}
    .fil205 {fill:#3B92C1}
    .fil206 {fill:#3B95C2}
    .fil112 {fill:#3C184C}
    .fil207 {fill:#3C96C3}
    .fil208 {fill:#3D97C4}
    .fil209 {fill:#3D98C5}
    .fil210 {fill:#3E9BC6}
    .fil211 {fill:#3E9CC7}
    .fil111 {fill:#3F184B}
    .fil212 {fill:#409DC8}
    .fil213 {fill:#409EC9}
    .fil214 {fill:#41A1CA}
    .fil215 {fill:#41A2CB}
    .fil110 {fill:#42174A}
    .fil216 {fill:#42A3CC}
    .fil217 {fill:#43A4CD}
    .fil218 {fill:#44A7CE}
    .fil219 {fill:#44A8CF}
    .fil109 {fill:#451749}
    .fil220 {fill:#45A9D0}
    .fil221 {fill:#46AAD1}
    .fil222 {fill:#46ADD2}
    .fil223 {fill:#47AED3}
    .fil108 {fill:#481648}
    .fil224 {fill:#48AFD4}
    .fil225 {fill:#49B0D5}
    .fil226 {fill:#49B3D6}
    .fil227 {fill:#4AB4D7}
    .fil107 {fill:#4B1647}
    .fil228 {fill:#4BB5D8}
    .fil229 {fill:#4CB6D9}
    .fil230 {fill:#4CB9DA}
    .fil231 {fill:#4DB9DA}
    .fil232 {fill:#4DBADB}
    .fil106 {fill:#4E1646}
    .fil233 {fill:#4EBBDC}
    .fil234 {fill:#4FBEDD}
    .fil235 {fill:#4FBFDE}
    .fil236 {fill:#50C0DF}
    .fil105 {fill:#511545}
    .fil237 {fill:#51C1E0}
    .fil238 {fill:#52C4E1}
    .fil239 {fill:#52C5E2}
    .fil104 {fill:#541544}
    .fil240 {fill:#54C6E3}
    .fil241 {fill:#54C7E4}
    .fil242 {fill:#55CBE5}
    .fil243 {fill:#56CCE6}
    .fil103 {fill:#571543}
    .fil244 {fill:#57CDE7}
    .fil245 {fill:#57CDE8}
    .fil246 {fill:#58D1E9}
    .fil247 {fill:#59D2EA}
    .fil248 {fill:#59D3EB}
    .fil102 {fill:#5A1442}
    .fil101 {fill:#5D1441}
    .fil100 {fill:#601440}
    .fil99 {fill:#63133F}
    .fil98 {fill:#66133E}
    .fil97 {fill:#69123D}
    .fil96 {fill:#6C123C}
    .fil95 {fill:#6F123B}
    .fil94 {fill:#721139}
    .fil93 {fill:#751138}
    .fil92 {fill:#781137}
    .fil91 {fill:#7B1036}
    .fil90 {fill:#7E1035}
    .fil89 {fill:#810F34}
    .fil88 {fill:#840F33}
    .fil87 {fill:#860F33}
    .fil86 {fill:#870F32}
    .fil85 {fill:#890F32}
    .fil84 {fill:#8A0E31}
    .fil83 {fill:#8C0E31}
    .fil82 {fill:#8D0E30}
    .fil81 {fill:#8E0E30}
    .fil80 {fill:#900E2F}
    .fil79 {fill:#910D2F}
    .fil78 {fill:#930D2E}
    .fil77 {fill:#940D2E}
    .fil76 {fill:#950D2D}
    .fil75 {fill:#970D2D}
    .fil74 {fill:#980D2C}
    .fil73 {fill:#9A0C2C}
    .fil72 {fill:#9B0C2B}
    .fil71 {fill:#9C0C2B}
    .fil70 {fill:#9E0C2A}
    .fil69 {fill:#9F0C2A}
    .fil68 {fill:#A10C29}
    .fil67 {fill:#A20B29}
    .fil66 {fill:#A40B28}
    .fil65 {fill:#A50B28}
    .fil64 {fill:#A60B28}
    .fil63 {fill:#A80B27}
    .fil62 {fill:#A90B27}
    .fil61 {fill:#AB0A26}
    .fil60 {fill:#AC0A26}
    .fil59 {fill:#AD0A25}
    .fil58 {fill:#AF0A25}
    .fil57 {fill:#B00A24}
    .fil56 {fill:#B20A24}
    .fil55 {fill:#B30923}
    .fil54 {fill:#B40923}
    .fil53 {fill:#B60922}
    .fil52 {fill:#B70922}
    .fil51 {fill:#B90921}
    .fil50 {fill:#BA0821}
    .fil49 {fill:#BB0820}
    .fil48 {fill:#BD0820}
    .fil47 {fill:#BE081F}
    .fil46 {fill:#C0081F}
    .fil45 {fill:#C1081E}
    .fil44 {fill:#C2071E}
    .fil43 {fill:#C4071D}
    .fil42 {fill:#C5071D}
    .fil41 {fill:#C7071C}
    .fil40 {fill:#C8071C}
    .fil39 {fill:#CA071B}
    .fil38 {fill:#CB061B}
    .fil37 {fill:#CC061A}
    .fil36 {fill:#CE061A}
    .fil35 {fill:#CF0619}
    .fil34 {fill:#D10619}
    .fil33 {fill:#D20619}
    .fil32 {fill:#D30518}
    .fil31 {fill:#D50518}
    .fil30 {fill:#D60517}
    .fil29 {fill:#D80517}
    .fil28 {fill:#D90516}
    .fil27 {fill:#DA0416}
    .fil26 {fill:#DC0415}
    .fil25 {fill:#DD0415}
    .fil24 {fill:#DF0414}
    .fil23 {fill:#E00414}
    .fil22 {fill:#E10413}
    .fil21 {fill:#E30313}
    .fil20 {fill:#E40312}
    .fil19 {fill:#E60312}
    .fil18 {fill:#E70311}
    .fil17 {fill:#E80311}
    .fil16 {fill:#EA0310}
    .fil15 {fill:#EB0210}
    .fil14 {fill:#ED020F}
    .fil13 {fill:#EE020F}
    .fil12 {fill:#F0020E}
    .fil11 {fill:#F1020E}
    .fil10 {fill:#F2020D}
    .fil9 {fill:#F4010D}
    .fil8 {fill:#F5010C}
    .fil7 {fill:#F7010C}
    .fil6 {fill:#F8010B}
    .fil5 {fill:#F9010B}
    .fil4 {fill:#FB010A}
    .fil3 {fill:#FC000A}
    .fil2 {fill:#FE0009}
    .fil1 {fill:#FF0009}
    .fil0 {fill:url(#id1)}
   ]]>
  </style>
    <clipPath id="id0">
     <path d="M56.159 0c3.638,0 6.587,2.949 6.587,6.587 0,3.638 -2.949,6.587 -6.587,6.587 -3.638,0 -6.587,-2.949 -6.587,-6.587 0,-3.638 2.949,-6.587 6.587,-6.587zm-42.304 16.598l34.741 -9.332c0.034,1.035 0.386,2.212 0.949,2.868l-33.091 10.865c0.215,-1.366 -1.228,-3.456 -2.599,-4.401zm40.638 -2.744l-11.19 24.65c-1.175,-1.762 -2.827,-3.177 -4.772,-4.062l12.986 -22.026c0.864,0.712 1.848,1.18 2.976,1.438zm-39.163 13.882l10.81 8.364c-1.178,0.79 -2.537,2.963 -2.74,4.096l-10.31 -10.04c0.889,-0.659 1.65,-1.48 2.24,-2.42zm-7.521 -12.525c4.313,0 7.81,3.496 7.81,7.809 0,4.313 -3.497,7.81 -7.81,7.81 -4.313,0 -7.809,-3.497 -7.809,-7.81 0,-4.313 3.496,-7.809 7.809,-7.809zm26.008 19.829c5.401,0 9.779,4.378 9.779,9.778 0,5.401 -4.378,9.779 -9.779,9.779 -5.4,0 -9.778,-4.378 -9.778,-9.779 0,-5.4 4.378,-9.778 9.778,-9.778z"/>
    </clipPath>
  <linearGradient id="id1" gradientUnits="userSpaceOnUse" x1="187.676" y1="11.417" x2="187.676" y2="54.262">
   <stop offset="0" style="stop-opacity:1; stop-color:#20A4DC"/>
   <stop offset="1" style="stop-opacity:1; stop-color:#0D1249"/>
  </linearGradient>
 </defs>
 <g id="Layer_x0020_1">
  <metadata id="CorelCorpID_0Corel-Layer"/>
  <path class="fil0" d="M76.136 21.532c2.649,-4.329 1.453,-3.339 11.317,-3.374 4.906,-0.018 9.813,-0.015 14.719,-0.028 1.613,-1.053 2.47,-4.706 2.926,-6.533 -2.347,-0.335 -19.095,-0.097 -22.998,-0.12 -7.928,-0.049 -12.778,1.916 -13.846,9.441 -0.814,6.739 -1.982,10.04 6.141,10.519 4.739,0.28 13.633,-0.915 16.772,1.113l0.036 2.127c-0.41,1.016 -0.778,2.288 -1.07,3.181 -5.361,1.42 -5.399,0.961 -11.713,0.958 -4.334,-0.003 -8.672,0.02 -13.006,0.004l-2.06 6.163c6.478,0.563 14.786,0.027 21.422,0.084 3.28,0.029 6.532,-0.001 9.194,-1.522 1.571,-0.898 4.355,-3.79 4.094,-6.439 0.281,-0.391 0.061,0.121 0.389,-0.768 0.06,-0.163 0.226,-0.748 0.241,-0.816 0.208,-0.968 0.23,-1.187 0.1,-2.041 0.961,-1.733 0.749,-4.948 -1.513,-6.628 -4.18,-3.101 -17.454,-0.894 -20.089,-1.982 -1.444,-0.596 -1.065,-1.682 -1.056,-3.339zm27.661 10.084l-1.031 4.181 -1.66 7.013 -2.829 11.452 7.575 -0.003 2.433 -9.194c6.716,0.27 17.562,1.371 21.786,-3.685 0.415,-0.245 0.041,0.375 0.643,-0.587 0.692,-1.107 0.279,-0.276 0.389,-1.229 1.348,-0.953 2.566,-6.761 2.397,-8.627 1.17,-1.539 0.742,-5.356 -0.586,-6.519 -2.247,-3.667 -9.649,-3.23 -14.684,-3.26 -2.711,-0.016 -5.602,0.068 -8.213,0.648 -2.807,0.623 -4.295,1.549 -4.881,4.295l-1.329 5.475m5.983 5.552c0.057,-0.078 0.13,-0.298 0.152,-0.246 0.109,0.249 1.331,-3.399 1.158,-5.226 1.123,-1.425 0.193,-2.416 1.953,-4.279 2.562,-0.841 8.586,-0.771 11.405,-0.294 1.951,0.825 2.191,1.636 1.707,3.97 -0.383,1.473 -1.708,5.801 -1.838,6.814l-1.524 1.062c-2.471,1.402 -9.79,0.803 -13.406,0.852 0.331,-1.347 0.554,-1.42 0.393,-2.653zm34.722 -4.933c0.601,-0.657 0.576,-1.219 0.876,-2.17l0.83 -1.963c2.61,-1.078 4.746,-1.257 8.144,-1.258 1.476,-0.001 3.019,-0.091 4.361,0.192 1.898,0.401 2.095,0.651 2.266,2.677l-1.111 4.553c0.089,3.461 -2.65,5.449 -6.171,5.564 -1.845,0.061 -4.214,0.064 -6.054,-0.012 -2.322,-0.095 -3.423,-0.277 -3.908,-2.252l0.767 -5.331zm-5.256 -5.881c-0.51,0.21 -0.007,-0.398 -0.611,0.666 -0.22,0.389 -0.433,1.016 -0.577,1.433 -0.362,1.055 -0.662,2.145 -0.862,3.256l-0.998 4.359c-1.994,10.181 7.154,9.216 15.142,9.222 4.222,0.003 7.247,-0.161 10.738,-1.831 2.116,-1.012 5.369,-4.532 4.9,-7.619 1.029,-1.434 2.224,-7.951 1.479,-9.996 -1.443,-5.021 -9.214,-4.626 -14.776,-4.625 -3.742,0.002 -12.788,0.111 -14.435,5.135zm-35.458 5.297l-0.001 0.005m113.712 7.757l-1.348 5.657 7.862 0.014c0.347,-1.881 1.254,-3.829 1.117,-5.775 0.927,-1.037 2.16,-6.744 2.025,-8.319 1.383,-1.59 0.01,-3.725 4.494,-3.878 2.6,-0.089 6.035,-0.081 8.628,0.018 3.976,0.997 1.94,3.81 1.305,7.251l-2.606 10.641 7.781 0.064c0.678,-2.12 2.195,-7.836 2.12,-9.826 1.338,-1.511 2.214,-8.356 1.534,-10.409 -2.11,-4.884 -12.312,-3.333 -17.779,-3.348 -8.623,-0.025 -11.227,-0.224 -12.796,8.241l-2.337 9.669zm69.594 -1.744l-1.782 7.434 7.874 -0.034c0.465,-1.985 1.279,-4.136 1.189,-6.139 1.072,-1.211 2.476,-7.852 2.351,-9.717 0.936,-0.877 0.734,-1.366 2.096,-1.874 2.224,-0.83 8.33,0.064 11.586,-0.477l1.582 -5.293c-4.048,-0.136 -11.784,-0.419 -15.455,0.179 -5.471,0.891 -5.702,2.857 -7.484,7.694l-1.957 8.227zm-107.839 -3.507c1.343,-1.309 0.262,-4.716 2.86,-6.717 3.726,-0.933 7.273,-0.068 10.758,-0.604l1.603 -5.267c-3.293,-0.278 -8.691,-0.219 -12.037,-0.033 -4.114,0.228 -7.43,1.244 -8.36,4.478 -0.903,0.805 -1.814,5.287 -2.043,6.844l-3.02 12.237 7.749 -0.003c0.78,-1.591 2.487,-9.297 2.49,-10.935zm22.975 0.632l1.815 -7.691 11.507 -0.075c0.494,-1.93 1.685,-4.176 1.642,-5.898l-11.663 -0.002 2.144 -9.182 -7.492 -0.058c-1.017,1.608 -1.733,5.62 -2.091,7.817l-1.69 7.017 -1.979 8.056c-1.342,4.452 -1.901,8.137 2.383,9.712 2.427,0.892 10.842,0.84 13.748,0.588 0.754,-1.127 1.404,-3.876 1.452,-5.338 -3.315,0.03 -7.793,0.506 -10.132,-0.938 -0.286,-1.88 -0.169,-2.306 0.356,-4.008zm50.042 2.291c-0.911,6.659 2.594,8.073 8.796,8.035 5.55,-0.035 12.351,0.378 17.731,-0.076l2.313 -5.119c-5.178,0.076 -17.169,0.579 -20.748,-0.631l0.014 -3.214 22.294 -0.065c1.125,-2.969 3.16,-8.499 1.224,-11.22 -1.047,-2.468 -3.551,-2.954 -6.756,-3.197 -3.106,-0.235 -6.879,-0.098 -10.05,-0.092 -6.835,0.014 -11.19,1.747 -12.814,7.579l-2.004 8zm9.783 -8.049c1.554,-1.88 2.405,-2.033 5.364,-2.054 2.328,-0.017 5.531,-0.14 7.765,0.149 2.548,0.588 1.701,1.629 1.368,4.05l-15.032 -0.002 0.535 -2.143z"/>
  <g>
   <g style="clip-path:url(#id0)">
    <polygon class="fil1" points="53.019,10.041 53.666,10.059 53.648,10.706 53.001,10.688 "/>
    <path id="_1" class="fil2" d="M53.124 10.152l-0.012 0.431 0.431 0.012 0.012 -0.431 -0.431 -0.012zm-0.314 -0.332l1.078 0.029 -0.03 1.078 -1.078 -0.029 0.03 -1.078z"/>
    <path id="_2" class="fil3" d="M52.914 9.93l-0.023 0.863 0.862 0.023 0.024 -0.862 -0.863 -0.024zm-0.314 -0.332l1.509 0.042 -0.041 1.509 -1.51 -0.042 0.042 -1.509z"/>
    <path id="_3" class="fil4" d="M52.705 9.709l-0.036 1.293 1.294 0.036 0.035 -1.294 -1.293 -0.035zm-0.315 -0.332l1.941 0.053 -0.054 1.94 -1.94 -0.053 0.053 -1.94z"/>
    <path id="_4" class="fil5" d="M52.495 9.487l-0.047 1.725 1.724 0.047 0.048 -1.724 -1.725 -0.048zm-0.314 -0.332l2.371 0.065 -0.065 2.372 -2.372 -0.066 0.066 -2.371z"/>
    <path id="_5" class="fil6" d="M52.286 9.266l-0.06 2.156 2.156 0.059 0.059 -2.156 -2.155 -0.059zm-0.315 -0.332l2.803 0.077 -0.078 2.802 -2.802 -0.077 0.077 -2.802z"/>
    <path id="_6" class="fil7" d="M52.076 9.044l-0.071 2.587 2.587 0.071 0.071 -2.586 -2.587 -0.072zm-0.315 -0.332l3.234 0.089 -0.089 3.234 -3.234 -0.089 0.089 -3.234z"/>
    <path id="_7" class="fil8" d="M51.866 8.823l-0.083 3.018 3.018 0.083 0.083 -3.018 -3.018 -0.083zm-0.314 -0.332l3.665 0.1 -0.101 3.665 -3.665 -0.101 0.101 -3.664z"/>
    <path id="_8" class="fil9" d="M51.657 8.601l-0.095 3.45 3.449 0.095 0.095 -3.45 -3.449 -0.095zm-0.315 -0.332l4.096 0.113 -0.113 4.096 -4.096 -0.113 0.113 -4.096z"/>
    <path id="_9" class="fil10" d="M51.447 8.38l-0.107 3.88 3.881 0.107 0.106 -3.88 -3.88 -0.107zm-0.314 -0.333l4.527 0.125 -0.125 4.527 -4.527 -0.124 0.125 -4.528z"/>
    <path id="_10" class="fil11" d="M51.237 8.158l-0.118 4.312 4.311 0.119 0.119 -4.312 -4.312 -0.119zm-0.314 -0.332l4.958 0.137 -0.136 4.958 -4.959 -0.137 0.137 -4.958z"/>
    <path id="_11" class="fil12" d="M51.028 7.937l-0.131 4.742 4.743 0.131 0.13 -4.743 -4.742 -0.13zm-0.315 -0.333l5.39 0.149 -0.149 5.389 -5.389 -0.148 0.148 -5.39z"/>
    <path id="_12" class="fil13" d="M50.818 7.715l-0.142 5.174 5.173 0.143 0.143 -5.174 -5.174 -0.143zm-0.314 -0.332l5.82 0.16 -0.16 5.821 -5.821 -0.16 0.161 -5.821z"/>
    <path id="_13" class="fil14" d="M50.608 7.494l-0.154 5.605 5.605 0.154 0.155 -5.605 -5.606 -0.154zm-0.314 -0.333l6.252 0.173 -0.172 6.251 -6.252 -0.172 0.172 -6.252z"/>
    <path id="_14" class="fil15" d="M50.399 7.272l-0.166 6.036 6.036 0.167 0.166 -6.037 -6.036 -0.166zm-0.315 -0.332l6.683 0.184 -0.184 6.683 -6.683 -0.184 0.184 -6.683z"/>
    <path id="_15" class="fil16" d="M50.189 7.051l-0.178 6.467 6.467 0.178 0.179 -6.467 -6.468 -0.178zm-0.314 -0.333l7.114 0.196 -0.196 7.114 -7.114 -0.195 0.196 -7.115z"/>
    <path id="_16" class="fil17" d="M49.979 6.829l-0.189 6.899 6.898 0.19 0.19 -6.899 -6.899 -0.19zm-0.314 -0.332l7.545 0.208 -0.207 7.545 -7.546 -0.208 0.208 -7.545z"/>
    <path id="_17" class="fil18" d="M49.77 6.608l-0.202 7.329 7.33 0.202 0.202 -7.33 -7.33 -0.201zm-0.315 -0.333l7.977 0.22 -0.22 7.976 -7.976 -0.219 0.219 -7.977z"/>
    <path id="_18" class="fil19" d="M49.56 6.386l-0.214 7.761 7.761 0.214 0.214 -7.761 -7.761 -0.214zm-0.314 -0.332l8.407 0.231 -0.231 8.408 -8.408 -0.232 0.232 -8.407z"/>
    <path id="_19" class="fil20" d="M49.351 6.165l-0.226 8.192 8.192 0.225 0.226 -8.192 -8.192 -0.225zm-0.315 -0.333l8.839 0.244 -0.244 8.839 -8.838 -0.244 0.243 -8.839z"/>
    <path id="_20" class="fil21" d="M49.141 5.943l-0.238 8.623 8.624 0.238 0.237 -8.623 -8.623 -0.238zm-0.315 -0.332l9.27 0.255 -0.255 9.27 -9.27 -0.255 0.255 -9.27z"/>
    <path id="_21" class="fil22" d="M48.931 5.722l-0.249 9.054 9.054 0.249 0.25 -9.054 -9.055 -0.249zm-0.314 -0.333l9.701 0.267 -0.267 9.702 -9.701 -0.268 0.267 -9.701z"/>
    <path id="_22" class="fil23" d="M48.722 5.5l-0.262 9.486 9.486 0.261 0.261 -9.486 -9.485 -0.261zm-0.315 -0.332l10.132 0.279 -0.279 10.132 -10.132 -0.279 0.279 -10.132z"/>
    <path id="_23" class="fil24" d="M48.512 5.279l-0.273 9.916 9.917 0.273 0.273 -9.916 -9.917 -0.273zm-0.314 -0.333l10.563 0.291 -0.291 10.564 -10.563 -0.291 0.291 -10.564z"/>
    <path id="_24" class="fil25" d="M48.302 5.057l-0.285 10.348 10.348 0.285 0.285 -10.348 -10.348 -0.285zm-0.314 -0.332l10.994 0.302 -0.302 10.995 -10.995 -0.303 0.303 -10.994z"/>
    <path id="_25" class="fil26" d="M48.093 4.835l-0.297 10.78 10.779 0.296 0.297 -10.779 -10.779 -0.297zm-0.315 -0.332l11.426 0.315 -0.315 11.426 -11.425 -0.315 0.314 -11.426z"/>
    <path id="_26" class="fil27" d="M47.883 4.614l-0.309 11.21 11.211 0.309 0.308 -11.21 -11.21 -0.309zm-0.314 -0.332l11.856 0.326 -0.326 11.857 -11.857 -0.326 0.327 -11.857z"/>
    <path id="_27" class="fil28" d="M47.673 4.392l-0.32 11.642 11.641 0.32 0.321 -11.641 -11.642 -0.321zm-0.314 -0.332l12.288 0.339 -0.338 12.288 -12.288 -0.339 0.338 -12.288z"/>
    <path id="_28" class="fil29" d="M47.464 4.171l-0.333 12.072 12.073 0.333 0.332 -12.073 -12.072 -0.332zm-0.315 -0.332l12.72 0.35 -0.351 12.719 -12.719 -0.35 0.35 -12.719z"/>
    <path id="_29" class="fil30" d="M47.254 3.949l-0.344 12.504 12.503 0.344 0.345 -12.503 -12.504 -0.345zm-0.314 -0.332l13.15 0.362 -0.362 13.151 -13.15 -0.362 0.362 -13.151z"/>
    <path id="_30" class="fil31" d="M47.044 3.728l-0.356 12.935 12.935 0.356 0.356 -12.935 -12.935 -0.356zm-0.314 -0.332l13.582 0.374 -0.374 13.581 -13.582 -0.374 0.374 -13.581z"/>
    <path id="_31" class="fil32" d="M46.835 3.506l-0.368 13.366 13.366 0.368 0.368 -13.366 -13.366 -0.368zm-0.315 -0.332l14.013 0.386 -0.386 14.013 -14.013 -0.386 0.386 -14.013z"/>
    <path id="_32" class="fil33" d="M46.625 3.285l-0.38 13.797 13.797 0.38 0.38 -13.797 -13.797 -0.38zm-0.314 -0.332l14.444 0.397 -0.398 14.444 -14.444 -0.398 0.398 -14.443z"/>
    <path id="_33" class="fil34" d="M46.416 3.063l-0.392 14.229 14.228 0.391 0.392 -14.228 -14.228 -0.392zm-0.315 -0.332l14.875 0.41 -0.41 14.875 -14.875 -0.41 0.41 -14.875z"/>
    <path id="_34" class="fil35" d="M46.206 2.842l-0.404 14.659 14.66 0.404 0.403 -14.659 -14.659 -0.404zm-0.315 -0.332l15.307 0.421 -0.422 15.306 -15.306 -0.421 0.421 -15.306z"/>
    <path id="_35" class="fil36" d="M45.996 2.62l-0.415 15.091 15.09 0.415 0.416 -15.09 -15.091 -0.416zm-0.314 -0.332l15.737 0.433 -0.433 15.738 -15.738 -0.434 0.434 -15.737z"/>
    <path id="_36" class="fil37" d="M45.787 2.399l-0.428 15.522 15.522 0.427 0.427 -15.522 -15.521 -0.427zm-0.315 -0.332l16.169 0.445 -0.446 16.168 -16.168 -0.445 0.445 -16.168z"/>
    <path id="_37" class="fil38" d="M45.577 2.177l-0.439 15.953 15.953 0.44 0.439 -15.953 -15.953 -0.44zm-0.315 -0.332l16.6 0.457 -0.457 16.6 -16.6 -0.457 0.457 -16.6z"/>
    <path id="_38" class="fil39" d="M45.367 1.956l-0.451 16.384 16.384 0.451 0.451 -16.384 -16.384 -0.451zm-0.314 -0.333l17.031 0.469 -0.469 17.031 -17.031 -0.469 0.469 -17.031z"/>
    <path id="_39" class="fil40" d="M45.158 1.734l-0.463 16.816 16.815 0.463 0.463 -16.816 -16.815 -0.463zm-0.315 -0.332l17.462 0.481 -0.481 17.462 -17.462 -0.481 0.481 -17.462z"/>
    <path id="_40" class="fil41" d="M44.948 1.513l-0.475 17.246 17.247 0.475 0.474 -17.246 -17.246 -0.475zm-0.314 -0.333l17.893 0.493 -0.493 17.893 -17.893 -0.492 0.493 -17.894z"/>
    <path id="_41" class="fil42" d="M44.738 1.291l-0.486 17.678 17.677 0.487 0.487 -17.678 -17.678 -0.487zm-0.314 -0.332l18.324 0.505 -0.504 18.324 -18.325 -0.505 0.505 -18.324z"/>
    <path id="_42" class="fil43" d="M44.529 1.07l-0.499 18.108 18.109 0.499 0.498 -18.109 -18.108 -0.498zm-0.315 -0.333l18.756 0.517 -0.517 18.755 -18.755 -0.516 0.516 -18.756z"/>
    <path id="_43" class="fil44" d="M44.319 0.848l-0.51 18.54 18.539 0.511 0.511 -18.54 -18.54 -0.511zm-0.314 -0.332l19.186 0.528 -0.528 19.187 -19.187 -0.528 0.529 -19.187z"/>
    <path id="_44" class="fil45" d="M44.109 0.627l-0.522 18.971 18.971 0.522 0.522 -18.971 -18.971 -0.522zm-0.314 -0.333l19.618 0.541 -0.54 19.617 -19.618 -0.54 0.54 -19.618z"/>
    <path id="_45" class="fil46" d="M43.9 0.405l-0.534 19.402 19.402 0.535 0.534 -19.403 -19.402 -0.534zm-0.315 -0.332l20.049 0.552 -0.552 20.049 -20.049 -0.552 0.552 -20.049z"/>
    <path id="_46" class="fil47" d="M43.69 0.184l-0.546 19.833 19.833 0.546 0.547 -19.833 -19.834 -0.546zm-0.314 -0.333l20.48 0.564 -0.564 20.48 -20.48 -0.564 0.564 -20.48z"/>
    <path id="_47" class="fil48" d="M43.481 -0.038l-0.558 20.265 20.264 0.558 0.558 -20.265 -20.264 -0.558zm-0.315 -0.332l20.911 0.576 -0.576 20.911 -20.911 -0.576 0.576 -20.911z"/>
    <path id="_48" class="fil49" d="M43.271 -0.259l-0.57 20.695 20.696 0.57 0.57 -20.696 -20.696 -0.569zm-0.315 -0.333l21.343 0.588 -0.588 21.342 -21.342 -0.587 0.587 -21.343z"/>
    <path id="_49" class="fil50" d="M43.061 -0.481l-0.582 21.127 21.127 0.582 0.582 -21.127 -21.127 -0.582zm-0.314 -0.332l21.773 0.599 -0.599 21.774 -21.774 -0.6 0.6 -21.773z"/>
    <path id="_50" class="fil51" d="M42.852 -0.702l-0.594 21.558 21.558 0.593 0.594 -21.558 -21.558 -0.593zm-0.315 -0.333l22.205 0.612 -0.612 22.205 -22.204 -0.612 0.611 -22.205z"/>
    <path id="_51" class="fil52" d="M42.642 -0.924l-0.606 21.989 21.99 0.606 0.605 -21.989 -21.989 -0.606zm-0.315 -0.332l22.636 0.623 -0.623 22.636 -22.636 -0.623 0.623 -22.636z"/>
    <path id="_52" class="fil53" d="M42.432 -1.145l-0.617 22.42 22.42 0.617 0.618 -22.42 -22.421 -0.617zm-0.314 -0.333l23.067 0.635 -0.635 23.068 -23.067 -0.636 0.635 -23.067z"/>
    <path id="_53" class="fil54" d="M42.223 -1.367l-0.63 22.852 22.852 0.629 0.629 -22.852 -22.851 -0.629zm-0.315 -0.332l23.498 0.647 -0.647 23.498 -23.498 -0.647 0.647 -23.498z"/>
    <path id="_54" class="fil55" d="M42.013 -1.589l-0.641 23.283 23.283 0.641 0.641 -23.282 -23.283 -0.642zm-0.314 -0.332l23.929 0.659 -0.659 23.93 -23.929 -0.659 0.659 -23.93z"/>
    <path id="_55" class="fil56" d="M41.803 -1.81l-0.653 23.714 23.714 0.653 0.653 -23.714 -23.714 -0.653zm-0.314 -0.332l24.36 0.671 -0.67 24.36 -24.361 -0.671 0.671 -24.36z"/>
    <path id="_56" class="fil57" d="M41.594 -2.032l-0.665 24.145 24.145 0.665 0.665 -24.145 -24.145 -0.665zm-0.315 -0.332l24.792 0.683 -0.683 24.792 -24.791 -0.683 0.682 -24.792z"/>
    <path id="_57" class="fil58" d="M41.384 -2.253l-0.677 24.576 24.576 0.677 0.677 -24.576 -24.576 -0.677zm-0.314 -0.332l25.222 0.694 -0.694 25.223 -25.223 -0.694 0.695 -25.223z"/>
    <path id="_58" class="fil59" d="M41.174 -2.475l-0.688 25.008 25.007 0.688 0.689 -25.007 -25.008 -0.689zm-0.314 -0.332l25.654 0.707 -0.706 25.654 -25.654 -0.707 0.706 -25.654z"/>
    <path id="_59" class="fil60" d="M40.965 -2.696l-0.701 25.438 25.439 0.701 0.7 -25.439 -25.438 -0.7zm-0.315 -0.332l26.086 0.718 -0.719 26.085 -26.085 -0.718 0.718 -26.085z"/>
    <path id="_60" class="fil61" d="M40.755 -2.918l-0.712 25.87 25.869 0.712 0.713 -25.869 -25.87 -0.713zm-0.314 -0.332l26.516 0.73 -0.73 26.517 -26.517 -0.731 0.731 -26.516z"/>
    <path id="_61" class="fil62" d="M40.546 -3.139l-0.725 26.301 26.301 0.724 0.724 -26.301 -26.3 -0.724zm-0.315 -0.332l26.948 0.742 -0.743 26.947 -26.947 -0.742 0.742 -26.947z"/>
    <path id="_62" class="fil63" d="M40.336 -3.361l-0.736 26.732 26.732 0.736 0.736 -26.732 -26.732 -0.736zm-0.315 -0.332l27.379 0.754 -0.754 27.379 -27.379 -0.754 0.754 -27.379z"/>
    <path id="_63" class="fil64" d="M40.126 -3.582l-0.748 27.163 27.163 0.748 0.748 -27.163 -27.163 -0.748zm-0.314 -0.332l27.81 0.765 -0.766 27.81 -27.81 -0.766 0.766 -27.809z"/>
    <path id="_64" class="fil65" d="M39.917 -3.804l-0.76 27.595 27.594 0.759 0.76 -27.594 -27.594 -0.76zm-0.315 -0.332l28.241 0.778 -0.778 28.241 -28.241 -0.778 0.778 -28.241z"/>
    <path id="_65" class="fil66" d="M39.707 -4.025l-0.772 28.025 28.026 0.772 0.771 -28.025 -28.025 -0.772zm-0.315 -0.332l28.673 0.789 -0.79 28.672 -28.672 -0.789 0.789 -28.672z"/>
    <path id="_66" class="fil67" d="M39.497 -4.247l-0.783 28.457 28.456 0.783 0.784 -28.456 -28.457 -0.784zm-0.314 -0.332l29.103 0.801 -0.801 29.104 -29.104 -0.802 0.802 -29.103z"/>
    <path id="_67" class="fil68" d="M39.288 -4.468l-0.796 28.888 28.888 0.795 0.795 -28.888 -28.887 -0.795zm-0.315 -0.332l29.535 0.813 -0.814 29.534 -29.534 -0.813 0.813 -29.534z"/>
    <path id="_68" class="fil69" d="M39.078 -4.69l-0.807 29.319 29.319 0.808 0.807 -29.319 -29.319 -0.808zm-0.314 -0.332l29.965 0.825 -0.825 29.966 -29.966 -0.825 0.826 -29.966z"/>
    <path id="_69" class="fil70" d="M38.868 -4.911l-0.819 29.75 29.75 0.819 0.819 -29.75 -29.75 -0.819zm-0.314 -0.333l30.397 0.838 -0.837 30.396 -30.397 -0.837 0.837 -30.397z"/>
    <path id="_70" class="fil71" d="M38.659 -5.133l-0.831 30.181 30.181 0.832 0.831 -30.182 -30.181 -0.831zm-0.315 -0.332l30.828 0.849 -0.849 30.828 -30.828 -0.849 0.849 -30.828z"/>
    <path id="_71" class="fil72" d="M38.449 -5.354l-0.843 30.612 30.612 0.843 0.843 -30.612 -30.612 -0.843zm-0.314 -0.333l31.259 0.861 -0.861 31.259 -31.259 -0.86 0.861 -31.26z"/>
    <path id="_72" class="fil73" d="M38.239 -5.576l-0.854 31.044 31.043 0.855 0.855 -31.044 -31.044 -0.855zm-0.314 -0.332l31.69 0.873 -0.872 31.69 -31.691 -0.873 0.873 -31.69z"/>
    <path id="_73" class="fil74" d="M38.03 -5.797l-0.867 31.474 31.475 0.867 0.866 -31.475 -31.474 -0.866zm-0.315 -0.333l32.122 0.885 -0.885 32.121 -32.121 -0.884 0.884 -32.122z"/>
    <path id="_74" class="fil75" d="M37.82 -6.019l-0.878 31.906 31.905 0.879 0.879 -31.906 -31.906 -0.879zm-0.314 -0.332l32.552 0.896 -0.896 32.553 -32.553 -0.896 0.897 -32.553z"/>
    <path id="_75" class="fil76" d="M37.611 -6.24l-0.891 32.337 32.337 0.89 0.891 -32.337 -32.337 -0.89zm-0.315 -0.333l32.984 0.909 -0.908 32.983 -32.984 -0.908 0.908 -32.984z"/>
    <path id="_76" class="fil77" d="M37.401 -6.462l-0.902 32.768 32.768 0.903 0.902 -32.769 -32.768 -0.902zm-0.315 -0.332l33.415 0.92 -0.92 33.415 -33.415 -0.92 0.92 -33.415z"/>
    <path id="_77" class="fil78" d="M37.191 -6.683l-0.914 33.199 33.199 0.914 0.915 -33.199 -33.2 -0.914zm-0.314 -0.333l33.846 0.932 -0.932 33.846 -33.846 -0.932 0.932 -33.846z"/>
    <path id="_78" class="fil79" d="M36.982 -6.905l-0.927 33.631 33.631 0.926 0.926 -33.631 -33.63 -0.926zm-0.315 -0.332l34.277 0.944 -0.944 34.277 -34.277 -0.944 0.944 -34.277z"/>
    <path id="_79" class="fil80" d="M36.772 -7.126l-0.938 34.061 34.062 0.938 0.938 -34.061 -34.062 -0.938zm-0.315 -0.333l34.709 0.956 -0.956 34.709 -34.708 -0.956 0.955 -34.709z"/>
    <path id="_80" class="fil81" d="M36.562 -7.348l-0.95 34.493 34.493 0.95 0.95 -34.493 -34.493 -0.95zm-0.314 -0.332l35.139 0.967 -0.967 35.14 -35.14 -0.968 0.968 -35.139z"/>
    <path id="_81" class="fil82" d="M36.353 -7.569l-0.962 34.924 34.924 0.961 0.962 -34.924 -34.924 -0.961zm-0.315 -0.333l35.571 0.98 -0.98 35.571 -35.57 -0.98 0.979 -35.571z"/>
    <path id="_82" class="fil83" d="M36.143 -7.791l-0.974 35.355 35.356 0.974 0.973 -35.355 -35.355 -0.974zm-0.314 -0.332l36.001 0.991 -0.991 36.002 -36.002 -0.991 0.992 -36.002z"/>
    <path id="_83" class="fil84" d="M35.933 -8.012l-0.985 35.786 35.786 0.985 0.986 -35.786 -35.787 -0.985zm-0.314 -0.333l36.433 1.003 -1.003 36.434 -36.433 -1.004 1.003 -36.433z"/>
    <path id="_84" class="fil85" d="M35.724 -8.234l-0.998 36.217 36.218 0.998 0.997 -36.218 -36.217 -0.997zm-0.315 -0.332l36.864 1.015 -1.015 36.864 -36.864 -1.015 1.015 -36.864z"/>
    <path id="_85" class="fil86" d="M35.514 -8.455l-1.009 36.648 36.648 1.009 1.01 -36.648 -36.649 -1.009zm-0.314 -0.333l37.295 1.027 -1.027 37.296 -37.295 -1.027 1.027 -37.296z"/>
    <path id="_86" class="fil87" d="M35.304 -8.677l-1.021 37.08 37.08 1.021 1.021 -37.08 -37.08 -1.021zm-0.314 -0.332l37.726 1.039 -1.038 37.726 -37.727 -1.039 1.039 -37.726z"/>
    <path id="_87" class="fil88" d="M35.095 -8.899l-1.033 37.511 37.511 1.033 1.033 -37.511 -37.511 -1.033zm-0.315 -0.332l38.158 1.051 -1.051 38.158 -38.157 -1.051 1.05 -38.158z"/>
    <path id="_88" class="fil89" d="M34.885 -9.12l-1.045 37.942 37.942 1.045 1.045 -37.942 -37.942 -1.045zm-0.314 -0.332l38.589 1.062 -1.063 38.589 -38.589 -1.062 1.063 -38.589z"/>
    <path id="_89" class="fil90" d="M34.676 -9.342l-1.057 38.374 38.373 1.056 1.057 -38.373 -38.373 -1.057zm-0.315 -0.332l39.02 1.075 -1.074 39.02 -39.02 -1.075 1.074 -39.02z"/>
    <path id="_90" class="fil91" d="M34.466 -9.563l-1.069 38.804 38.805 1.069 1.068 -38.805 -38.804 -1.068zm-0.315 -0.332l39.452 1.086 -1.087 39.451 -39.451 -1.086 1.086 -39.451z"/>
    <path id="_91" class="fil92" d="M34.256 -9.785l-1.08 39.236 39.235 1.08 1.081 -39.235 -39.236 -1.081zm-0.314 -0.332l39.882 1.098 -1.098 39.883 -39.882 -1.099 1.098 -39.882z"/>
    <path id="_92" class="fil93" d="M34.047 -10.006l-1.093 39.667 39.667 1.092 1.092 -39.667 -39.666 -1.092zm-0.315 -0.332l40.314 1.11 -1.111 40.313 -40.313 -1.11 1.11 -40.313z"/>
    <path id="_93" class="fil94" d="M33.837 -10.228l-1.104 40.098 40.098 1.104 1.104 -40.097 -40.098 -1.105zm-0.315 -0.332l40.745 1.122 -1.122 40.745 -40.745 -1.122 1.122 -40.745z"/>
    <path id="_94" class="fil95" d="M33.627 -10.449l-1.116 40.529 40.529 1.116 1.116 -40.529 -40.529 -1.116zm-0.314 -0.332l41.176 1.133 -1.134 41.176 -41.176 -1.134 1.134 -41.175z"/>
    <path id="_95" class="fil96" d="M33.418 -10.671l-1.128 40.961 40.96 1.127 1.128 -40.96 -40.96 -1.128zm-0.315 -0.332l41.607 1.146 -1.146 41.607 -41.607 -1.146 1.146 -41.607z"/>
    <path id="_96" class="fil97" d="M33.208 -10.892l-1.14 41.391 41.392 1.14 1.139 -41.391 -41.391 -1.14zm-0.314 -0.332l42.038 1.157 -1.158 42.038 -42.038 -1.157 1.158 -42.038z"/>
    <path id="_97" class="fil98" d="M32.998 -11.114l-1.151 41.823 41.822 1.152 1.152 -41.823 -41.823 -1.152zm-0.314 -0.332l42.469 1.169 -1.169 42.47 -42.47 -1.17 1.17 -42.469z"/>
    <path id="_98" class="fil99" d="M32.789 -11.335l-1.164 42.253 42.254 1.164 1.163 -42.254 -42.253 -1.163zm-0.315 -0.333l42.901 1.182 -1.182 42.9 -42.9 -1.181 1.181 -42.901z"/>
    <path id="_99" class="fil100" d="M32.579 -11.557l-1.175 42.685 42.684 1.176 1.176 -42.685 -42.685 -1.176zm-0.314 -0.332l43.331 1.193 -1.193 43.332 -43.332 -1.193 1.194 -43.332z"/>
    <path id="_100" class="fil101" d="M32.369 -11.778l-1.187 43.116 43.116 1.187 1.187 -43.116 -43.116 -1.187zm-0.314 -0.333l43.763 1.206 -1.205 43.762 -43.763 -1.205 1.205 -43.763z"/>
    <path id="_101" class="fil102" d="M32.16 -12l-1.199 43.547 43.547 1.2 1.199 -43.548 -43.547 -1.199zm-0.315 -0.332l44.194 1.217 -1.217 44.194 -44.194 -1.217 1.217 -44.194z"/>
    <path id="_102" class="fil103" d="M31.95 -12.221l-1.211 43.978 43.978 1.211 1.211 -43.978 -43.978 -1.211zm-0.314 -0.333l44.625 1.229 -1.229 44.625 -44.625 -1.228 1.229 -44.626z"/>
    <path id="_103" class="fil104" d="M31.74 -12.443l-1.222 44.41 44.409 1.223 1.223 -44.41 -44.41 -1.223zm-0.314 -0.332l45.056 1.241 -1.24 45.056 -45.057 -1.241 1.241 -45.056z"/>
    <path id="_104" class="fil105" d="M31.531 -12.664l-1.235 44.84 44.841 1.235 1.234 -44.841 -44.84 -1.234zm-0.315 -0.333l45.488 1.253 -1.253 45.487 -45.487 -1.252 1.252 -45.488z"/>
    <path id="_105" class="fil106" d="M31.321 -12.886l-1.246 45.272 45.271 1.247 1.247 -45.272 -45.272 -1.247zm-0.314 -0.332l45.918 1.264 -1.264 45.919 -45.919 -1.265 1.265 -45.918z"/>
    <path id="_106" class="fil107" d="M31.112 -13.107l-1.259 45.703 45.703 1.258 1.259 -45.703 -45.703 -1.258zm-0.315 -0.333l46.35 1.277 -1.277 46.349 -46.349 -1.276 1.276 -46.35z"/>
    <path id="_107" class="fil108" d="M30.902 -13.329l-1.27 46.134 46.134 1.271 1.27 -46.134 -46.134 -1.271zm-0.315 -0.332l46.781 1.288 -1.288 46.781 -46.781 -1.288 1.288 -46.781z"/>
    <path id="_108" class="fil109" d="M30.692 -13.55l-1.282 46.565 46.565 1.282 1.283 -46.565 -46.566 -1.282zm-0.314 -0.333l47.212 1.3 -1.3 47.212 -47.212 -1.3 1.3 -47.212z"/>
    <path id="_109" class="fil110" d="M30.483 -13.772l-1.295 46.997 46.997 1.294 1.294 -46.997 -46.996 -1.294zm-0.315 -0.332l47.643 1.312 -1.312 47.643 -47.643 -1.312 1.312 -47.643z"/>
    <path id="_110" class="fil111" d="M30.273 -13.993l-1.306 47.427 47.428 1.306 1.306 -47.427 -47.428 -1.306zm-0.314 -0.333l48.074 1.324 -1.324 48.074 -48.074 -1.323 1.324 -48.075z"/>
    <path id="_111" class="fil112" d="M30.063 -14.215l-1.318 47.859 47.859 1.318 1.318 -47.859 -47.859 -1.318zm-0.314 -0.332l48.505 1.335 -1.335 48.506 -48.506 -1.336 1.336 -48.505z"/>
    <path id="_112" class="fil113" d="M29.854 -14.436l-1.33 48.289 48.29 1.33 1.33 -48.29 -48.29 -1.329zm-0.315 -0.333l48.937 1.348 -1.348 48.937 -48.936 -1.348 1.347 -48.937z"/>
    <path id="_113" class="fil114" d="M29.644 -14.658l-1.342 48.721 48.722 1.342 1.341 -48.721 -48.721 -1.342zm-0.314 -0.332l49.367 1.359 -1.359 49.368 -49.368 -1.359 1.36 -49.368z"/>
    <path id="_114" class="fil115" d="M29.434 -14.879l-1.353 49.152 49.152 1.353 1.354 -49.152 -49.153 -1.353zm-0.314 -0.333l49.799 1.372 -1.371 49.799 -49.799 -1.372 1.371 -49.799z"/>
    <path id="_115" class="fil116" d="M29.225 -15.101l-1.366 49.583 49.584 1.366 1.365 -49.584 -49.583 -1.365zm-0.315 -0.332l50.23 1.383 -1.383 50.23 -50.23 -1.383 1.383 -50.23z"/>
    <path id="_116" class="fil117" d="M29.015 -15.323l-1.377 50.015 50.014 1.377 1.378 -50.014 -50.015 -1.378zm-0.314 -0.332l50.661 1.395 -1.395 50.662 -50.661 -1.395 1.395 -50.662z"/>
    <path id="_117" class="fil118" d="M28.805 -15.544l-1.389 50.446 50.446 1.389 1.389 -50.446 -50.446 -1.389zm-0.314 -0.332l51.093 1.407 -1.407 51.092 -51.093 -1.407 1.407 -51.092z"/>
    <path id="_118" class="fil119" d="M28.596 -15.766l-1.401 50.877 50.877 1.401 1.401 -50.877 -50.877 -1.401zm-0.315 -0.332l51.524 1.419 -1.419 51.524 -51.523 -1.419 1.418 -51.524z"/>
    <path id="_119" class="fil120" d="M28.386 -15.987l-1.413 51.308 51.308 1.413 1.413 -51.308 -51.308 -1.413zm-0.314 -0.332l51.955 1.43 -1.431 51.955 -51.955 -1.431 1.431 -51.954z"/>
    <path id="_120" class="fil121" d="M28.177 -16.209l-1.425 51.74 51.739 1.424 1.425 -51.739 -51.739 -1.425zm-0.315 -0.332l52.386 1.443 -1.442 52.386 -52.386 -1.443 1.442 -52.386z"/>
    <path id="_121" class="fil122" d="M27.967 -16.43l-1.437 52.17 52.171 1.437 1.436 -52.17 -52.17 -1.437zm-0.315 -0.332l52.818 1.454 -1.455 52.817 -52.817 -1.454 1.454 -52.817z"/>
    <path id="_122" class="fil123" d="M27.757 -16.652l-1.448 52.602 52.601 1.448 1.449 -52.601 -52.602 -1.449zm-0.314 -0.332l53.248 1.466 -1.466 53.249 -53.249 -1.467 1.467 -53.248z"/>
    <path id="_123" class="fil124" d="M27.548 -16.873l-1.461 53.033 53.033 1.46 1.46 -53.033 -53.032 -1.46zm-0.315 -0.332l53.68 1.478 -1.479 53.679 -53.679 -1.478 1.478 -53.679z"/>
    <path id="_124" class="fil125" d="M27.338 -17.095l-1.472 53.464 53.464 1.472 1.472 -53.463 -53.464 -1.473zm-0.314 -0.332l54.11 1.49 -1.49 54.111 -54.111 -1.49 1.491 -54.111z"/>
    <path id="_125" class="fil126" d="M27.128 -17.316l-1.484 53.895 53.895 1.484 1.484 -53.895 -53.895 -1.484zm-0.314 -0.332l54.542 1.501 -1.502 54.542 -54.542 -1.502 1.502 -54.541z"/>
    <path id="_126" class="fil127" d="M26.919 -17.538l-1.496 54.327 54.326 1.495 1.496 -54.326 -54.326 -1.496zm-0.315 -0.332l54.973 1.514 -1.514 54.973 -54.973 -1.514 1.514 -54.973z"/>
    <path id="_127" class="fil128" d="M26.709 -17.759l-1.508 54.757 54.758 1.508 1.507 -54.757 -54.757 -1.508zm-0.314 -0.332l55.404 1.525 -1.526 55.404 -55.404 -1.525 1.526 -55.404z"/>
    <path id="_128" class="fil129" d="M26.499 -17.981l-1.519 55.189 55.188 1.52 1.52 -55.189 -55.189 -1.52zm-0.314 -0.332l55.835 1.538 -1.537 55.835 -55.836 -1.538 1.538 -55.835z"/>
    <path id="_129" class="fil130" d="M26.29 -18.202l-1.532 55.619 55.62 1.532 1.531 -55.62 -55.619 -1.531zm-0.315 -0.333l56.267 1.55 -1.55 56.266 -56.266 -1.549 1.549 -56.267z"/>
    <path id="_130" class="fil131" d="M26.08 -18.424l-1.543 56.051 56.05 1.544 1.544 -56.051 -56.051 -1.544zm-0.314 -0.332l56.697 1.561 -1.561 56.698 -56.698 -1.561 1.562 -56.698z"/>
    <path id="_131" class="fil132" d="M25.87 -18.645l-1.555 56.482 56.482 1.555 1.555 -56.482 -56.482 -1.555zm-0.314 -0.333l57.129 1.574 -1.573 57.128 -57.129 -1.573 1.573 -57.129z"/>
    <path id="_132" class="fil133" d="M25.661 -18.867l-1.567 56.913 56.913 1.568 1.567 -56.914 -56.913 -1.567zm-0.315 -0.332l57.56 1.585 -1.585 57.56 -57.56 -1.585 1.585 -57.56z"/>
    <path id="_133" class="fil134" d="M25.451 -19.088l-1.579 57.344 57.344 1.579 1.579 -57.344 -57.344 -1.579zm-0.314 -0.333l57.991 1.597 -1.597 57.991 -57.991 -1.597 1.597 -57.991z"/>
    <path id="_134" class="fil135" d="M25.242 -19.31l-1.591 57.776 57.775 1.591 1.591 -57.776 -57.775 -1.591zm-0.315 -0.332l58.422 1.609 -1.608 58.422 -58.423 -1.609 1.609 -58.422z"/>
    <path id="_135" class="fil136" d="M25.032 -19.531l-1.603 58.206 58.207 1.603 1.603 -58.207 -58.207 -1.602zm-0.315 -0.333l58.854 1.621 -1.621 58.853 -58.853 -1.62 1.62 -58.854z"/>
    <path id="_136" class="fil137" d="M24.822 -19.753l-1.614 58.638 58.637 1.615 1.615 -58.638 -58.638 -1.615zm-0.314 -0.332l59.284 1.632 -1.632 59.285 -59.285 -1.633 1.633 -59.284z"/>
    <path id="_137" class="fil138" d="M24.613 -19.974l-1.627 59.069 59.069 1.626 1.627 -59.069 -59.069 -1.626zm-0.315 -0.333l59.716 1.645 -1.645 59.715 -59.715 -1.644 1.644 -59.716z"/>
    <path id="_138" class="fil139" d="M24.403 -20.196l-1.639 59.5 59.501 1.639 1.638 -59.5 -59.5 -1.639zm-0.315 -0.332l60.147 1.656 -1.656 60.147 -60.147 -1.656 1.656 -60.147z"/>
    <path id="_139" class="fil140" d="M24.193 -20.417l-1.65 59.931 59.931 1.65 1.651 -59.931 -59.932 -1.65zm-0.314 -0.333l60.578 1.668 -1.668 60.578 -60.578 -1.668 1.668 -60.578z"/>
    <path id="_140" class="fil141" d="M23.984 -20.639l-1.663 60.363 60.363 1.662 1.662 -60.363 -60.362 -1.662zm-0.315 -0.332l61.009 1.68 -1.68 61.009 -61.009 -1.68 1.68 -61.009z"/>
    <path id="_141" class="fil142" d="M23.774 -20.86l-1.674 60.793 60.794 1.674 1.674 -60.793 -60.794 -1.674zm-0.314 -0.333l61.44 1.692 -1.692 61.441 -61.44 -1.692 1.692 -61.441z"/>
    <path id="_142" class="fil143" d="M23.564 -21.082l-1.686 61.225 61.225 1.686 1.686 -61.225 -61.225 -1.686zm-0.314 -0.332l61.871 1.704 -1.703 61.871 -61.872 -1.704 1.704 -61.871z"/>
    <path id="_143" class="fil144" d="M23.355 -21.303l-1.698 61.655 61.656 1.698 1.698 -61.656 -61.656 -1.697zm-0.315 -0.333l62.303 1.716 -1.716 62.303 -62.302 -1.716 1.715 -62.303z"/>
    <path id="_144" class="fil145" d="M23.145 -21.525l-1.71 62.087 62.087 1.71 1.71 -62.087 -62.087 -1.71zm-0.314 -0.332l62.733 1.727 -1.727 62.734 -62.734 -1.727 1.728 -62.734z"/>
    <path id="_145" class="fil146" d="M22.935 -21.746l-1.721 62.518 62.518 1.721 1.722 -62.518 -62.519 -1.721zm-0.314 -0.333l63.165 1.74 -1.739 63.165 -63.165 -1.74 1.739 -63.165z"/>
    <path id="_146" class="fil147" d="M22.726 -21.968l-1.734 62.949 62.95 1.734 1.733 -62.95 -62.949 -1.733zm-0.315 -0.332l63.596 1.751 -1.751 63.596 -63.596 -1.751 1.751 -63.596z"/>
    <path id="_147" class="fil148" d="M22.516 -22.19l-1.745 63.381 63.38 1.745 1.746 -63.38 -63.381 -1.746zm-0.314 -0.332l64.027 1.763 -1.763 64.028 -64.027 -1.764 1.763 -64.027z"/>
    <path id="_148" class="fil149" d="M22.306 -22.411l-1.757 63.812 63.812 1.757 1.757 -63.812 -63.812 -1.757zm-0.314 -0.332l64.459 1.775 -1.775 64.458 -64.459 -1.775 1.775 -64.458z"/>
    <path id="_149" class="fil150" d="M22.097 -22.633l-1.769 64.243 64.243 1.769 1.769 -64.243 -64.243 -1.769zm-0.315 -0.332l64.89 1.787 -1.787 64.89 -64.889 -1.787 1.786 -64.89z"/>
    <path id="_150" class="fil151" d="M21.887 -22.854l-1.781 64.674 64.674 1.781 1.781 -64.674 -64.674 -1.781zm-0.314 -0.332l65.321 1.798 -1.799 65.321 -65.321 -1.799 1.799 -65.32z"/>
    <path id="_151" class="fil152" d="M21.678 -23.076l-1.793 65.106 65.105 1.792 1.793 -65.105 -65.105 -1.793zm-0.315 -0.332l65.752 1.811 -1.811 65.752 -65.751 -1.811 1.81 -65.752z"/>
    <path id="_152" class="fil153" d="M21.468 -23.297l-1.805 65.536 65.537 1.805 1.804 -65.536 -65.536 -1.805zm-0.315 -0.332l66.184 1.822 -1.823 66.183 -66.183 -1.822 1.822 -66.183z"/>
    <path id="_153" class="fil154" d="M21.258 -23.519l-1.816 65.968 65.967 1.816 1.817 -65.967 -65.968 -1.817zm-0.314 -0.332l66.614 1.834 -1.834 66.615 -66.615 -1.835 1.835 -66.614z"/>
    <path id="_154" class="fil155" d="M21.049 -23.74l-1.829 66.399 66.399 1.828 1.828 -66.399 -66.398 -1.828zm-0.315 -0.332l67.046 1.846 -1.847 67.045 -67.045 -1.846 1.846 -67.045z"/>
    <path id="_155" class="fil156" d="M20.839 -23.962l-1.84 66.83 66.83 1.84 1.84 -66.829 -66.83 -1.841zm-0.314 -0.332l67.476 1.858 -1.858 67.477 -67.477 -1.858 1.859 -67.477z"/>
    <path id="_156" class="fil157" d="M20.629 -24.183l-1.852 67.261 67.261 1.852 1.852 -67.261 -67.261 -1.852zm-0.314 -0.332l67.908 1.87 -1.87 67.907 -67.908 -1.87 1.87 -67.907z"/>
    <path id="_157" class="fil158" d="M20.42 -24.405l-1.864 67.692 67.692 1.865 1.864 -67.693 -67.692 -1.864zm-0.315 -0.332l68.339 1.882 -1.882 68.339 -68.339 -1.882 1.882 -68.339z"/>
    <path id="_158" class="fil159" d="M20.21 -24.626l-1.876 68.123 68.123 1.876 1.876 -68.123 -68.123 -1.876zm-0.314 -0.333l68.77 1.894 -1.894 68.77 -68.77 -1.893 1.894 -68.771z"/>
    <path id="_159" class="fil160" d="M20 -24.848l-1.887 68.555 68.554 1.888 1.888 -68.555 -68.555 -1.888zm-0.314 -0.332l69.201 1.906 -1.905 69.201 -69.202 -1.906 1.906 -69.201z"/>
    <path id="_160" class="fil161" d="M19.791 -25.069l-1.9 68.985 68.986 1.9 1.899 -68.986 -68.985 -1.899zm-0.315 -0.333l69.633 1.918 -1.918 69.632 -69.632 -1.917 1.917 -69.633z"/>
    <path id="_161" class="fil162" d="M19.581 -25.291l-1.911 69.417 69.416 1.912 1.912 -69.417 -69.417 -1.912zm-0.314 -0.332l70.063 1.929 -1.929 70.064 -70.064 -1.93 1.93 -70.063z"/>
    <path id="_162" class="fil163" d="M19.371 -25.512l-1.923 69.848 69.848 1.923 1.923 -69.848 -69.848 -1.923zm-0.314 -0.333l70.495 1.942 -1.941 70.494 -70.495 -1.941 1.941 -70.495z"/>
    <path id="_163" class="fil164" d="M19.162 -25.734l-1.935 70.279 70.279 1.936 1.935 -70.28 -70.279 -1.935zm-0.315 -0.332l70.926 1.953 -1.953 70.926 -70.926 -1.953 1.953 -70.926z"/>
    <path id="_164" class="fil165" d="M18.952 -25.955l-1.947 70.71 70.71 1.947 1.947 -70.71 -70.71 -1.947zm-0.314 -0.333l71.357 1.965 -1.965 71.357 -71.357 -1.965 1.965 -71.357z"/>
    <path id="_165" class="fil166" d="M18.743 -26.177l-1.959 71.142 71.141 1.959 1.959 -71.142 -71.141 -1.959zm-0.315 -0.332l71.788 1.977 -1.977 71.788 -71.788 -1.977 1.977 -71.788z"/>
    <path id="_166" class="fil167" d="M18.533 -26.398l-1.971 71.572 71.573 1.971 1.971 -71.572 -71.573 -1.971zm-0.315 -0.333l72.22 1.989 -1.989 72.219 -72.219 -1.988 1.988 -72.22z"/>
    <path id="_167" class="fil168" d="M18.323 -26.62l-1.983 72.004 72.004 1.983 1.983 -72.004 -72.004 -1.983zm-0.314 -0.332l72.65 2 -2 72.651 -72.651 -2.001 2.001 -72.65z"/>
    <path id="_168" class="fil169" d="M18.114 -26.841l-1.995 72.435 72.435 1.994 1.995 -72.435 -72.435 -1.994zm-0.315 -0.333l73.082 2.013 -2.013 73.081 -73.081 -2.012 2.012 -73.082z"/>
    <path id="_169" class="fil170" d="M17.904 -27.063l-2.007 72.866 72.867 2.007 2.006 -72.866 -72.866 -2.007zm-0.314 -0.332l73.512 2.024 -2.024 73.513 -73.513 -2.024 2.025 -73.513z"/>
    <path id="_170" class="fil171" d="M17.694 -27.284l-2.018 73.297 73.297 2.018 2.019 -73.297 -73.298 -2.018zm-0.314 -0.333l73.944 2.037 -2.036 73.943 -73.944 -2.036 2.036 -73.944z"/>
    <path id="_171" class="fil172" d="M17.485 -27.506l-2.031 73.728 73.729 2.031 2.03 -73.729 -73.728 -2.03zm-0.315 -0.332l74.375 2.048 -2.048 74.375 -74.375 -2.048 2.048 -74.375z"/>
    <path id="_172" class="fil173" d="M17.275 -27.727l-2.042 74.159 74.16 2.042 2.042 -74.159 -74.16 -2.042zm-0.314 -0.333l74.806 2.06 -2.06 74.807 -74.806 -2.06 2.06 -74.807z"/>
    <path id="_173" class="fil174" d="M17.065 -27.949l-2.054 74.591 74.591 2.054 2.054 -74.591 -74.591 -2.054zm-0.314 -0.332l75.237 2.072 -2.071 75.237 -75.238 -2.072 2.072 -75.237z"/>
    <path id="_174" class="fil175" d="M16.856 -28.17l-2.066 75.021 75.022 2.066 2.066 -75.022 -75.022 -2.065zm-0.315 -0.333l75.669 2.084 -2.084 75.669 -75.668 -2.084 2.083 -75.669z"/>
    <path id="_175" class="fil176" d="M16.646 -28.392l-2.078 75.453 75.453 2.078 2.078 -75.453 -75.453 -2.078zm-0.314 -0.332l76.099 2.095 -2.095 76.1 -76.1 -2.096 2.096 -76.099z"/>
    <path id="_176" class="fil177" d="M16.436 -28.614l-2.089 75.885 75.884 2.089 2.09 -75.884 -75.885 -2.09zm-0.314 -0.332l76.531 2.108 -2.107 76.531 -76.531 -2.108 2.107 -76.531z"/>
    <path id="_177" class="fil178" d="M16.227 -28.835l-2.102 76.315 76.316 2.102 2.101 -76.316 -76.315 -2.101zm-0.315 -0.332l76.963 2.119 -2.12 76.962 -76.962 -2.119 2.119 -76.962z"/>
    <path id="_178" class="fil179" d="M16.017 -29.057l-2.113 76.747 76.746 2.113 2.114 -76.746 -76.747 -2.114zm-0.314 -0.332l77.393 2.131 -2.131 77.394 -77.393 -2.132 2.131 -77.393z"/>
    <path id="_179" class="fil180" d="M15.808 -29.278l-2.126 77.178 77.178 2.125 2.125 -77.178 -77.177 -2.125zm-0.315 -0.332l77.825 2.143 -2.144 77.824 -77.824 -2.143 2.143 -77.824z"/>
    <path id="_180" class="fil181" d="M15.598 -29.5l-2.137 77.609 77.609 2.137 2.137 -77.608 -77.609 -2.138zm-0.315 -0.332l78.256 2.155 -2.155 78.256 -78.255 -2.155 2.154 -78.256z"/>
    <path id="_181" class="fil182" d="M15.388 -29.721l-2.149 78.04 78.04 2.149 2.149 -78.04 -78.04 -2.149zm-0.314 -0.332l78.687 2.166 -2.167 78.687 -78.687 -2.167 2.167 -78.686z"/>
    <path id="_182" class="fil183" d="M15.179 -29.943l-2.161 78.472 78.471 2.16 2.161 -78.471 -78.471 -2.161zm-0.315 -0.332l79.118 2.179 -2.179 79.118 -79.118 -2.179 2.179 -79.118z"/>
    <path id="_183" class="fil184" d="M14.969 -30.164l-2.173 78.902 78.903 2.173 2.172 -78.902 -78.902 -2.173zm-0.315 -0.332l79.55 2.19 -2.191 79.549 -79.549 -2.19 2.19 -79.549z"/>
    <path id="_184" class="fil185" d="M14.759 -30.386l-2.184 79.334 79.333 2.184 2.185 -79.333 -79.334 -2.185zm-0.314 -0.332l79.98 2.203 -2.202 79.98 -79.981 -2.203 2.203 -79.98z"/>
    <path id="_185" class="fil186" d="M14.55 -30.607l-2.197 79.764 79.765 2.197 2.196 -79.765 -79.764 -2.196zm-0.315 -0.332l80.412 2.214 -2.215 80.411 -80.411 -2.214 2.214 -80.411z"/>
    <path id="_186" class="fil187" d="M14.34 -30.829l-2.208 80.196 80.196 2.208 2.208 -80.195 -80.196 -2.209zm-0.314 -0.332l80.842 2.226 -2.226 80.843 -80.843 -2.226 2.227 -80.843z"/>
    <path id="_187" class="fil188" d="M14.13 -31.05l-2.22 80.627 80.627 2.22 2.22 -80.627 -80.627 -2.22zm-0.314 -0.332l81.274 2.238 -2.238 81.273 -81.274 -2.238 2.238 -81.273z"/>
    <path id="_188" class="fil189" d="M13.921 -31.272l-2.232 81.058 81.058 2.232 2.232 -81.058 -81.058 -2.232zm-0.315 -0.332l81.705 2.25 -2.25 81.705 -81.705 -2.25 2.25 -81.705z"/>
    <path id="_189" class="fil190" d="M13.711 -31.493l-2.244 81.489 81.489 2.244 2.244 -81.489 -81.489 -2.244zm-0.314 -0.332l82.136 2.261 -2.262 82.136 -82.136 -2.261 2.262 -82.136z"/>
    <path id="_190" class="fil191" d="M13.501 -31.715l-2.255 81.921 81.92 2.256 2.256 -81.921 -81.921 -2.256zm-0.314 -0.332l82.567 2.274 -2.273 82.567 -82.568 -2.274 2.274 -82.567z"/>
    <path id="_191" class="fil192" d="M13.292 -31.936l-2.268 82.351 82.352 2.268 2.267 -82.352 -82.351 -2.267zm-0.315 -0.333l82.999 2.286 -2.286 82.998 -82.998 -2.285 2.285 -82.999z"/>
    <path id="_192" class="fil193" d="M13.082 -32.158l-2.279 82.783 82.782 2.28 2.28 -82.783 -82.783 -2.28zm-0.314 -0.332l83.429 2.297 -2.297 83.43 -83.43 -2.298 2.298 -83.429z"/>
    <path id="_193" class="fil194" d="M12.873 -32.379l-2.292 83.214 83.214 2.291 2.291 -83.214 -83.213 -2.291zm-0.315 -0.333l83.861 2.31 -2.31 83.86 -83.86 -2.309 2.309 -83.861z"/>
    <path id="_194" class="fil195" d="M12.663 -32.601l-2.303 83.645 83.645 2.304 2.303 -83.645 -83.645 -2.304zm-0.315 -0.332l84.292 2.321 -2.321 84.292 -84.292 -2.321 2.321 -84.292z"/>
    <path id="_195" class="fil196" d="M12.453 -32.822l-2.315 84.076 84.076 2.315 2.316 -84.076 -84.077 -2.315zm-0.314 -0.333l84.723 2.333 -2.333 84.723 -84.723 -2.333 2.333 -84.723z"/>
    <path id="_196" class="fil197" d="M12.244 -33.044l-2.327 84.508 84.507 2.327 2.327 -84.508 -84.507 -2.327zm-0.315 -0.332l85.154 2.345 -2.345 85.154 -85.154 -2.345 2.345 -85.154z"/>
    <path id="_197" class="fil198" d="M12.034 -33.265l-2.339 84.938 84.939 2.339 2.339 -84.938 -84.939 -2.339zm-0.315 -0.333l85.586 2.357 -2.357 85.585 -85.585 -2.356 2.356 -85.586z"/>
    <path id="_198" class="fil199" d="M11.824 -33.487l-2.351 85.37 85.37 2.351 2.351 -85.37 -85.37 -2.351zm-0.314 -0.332l86.016 2.368 -2.368 86.017 -86.017 -2.369 2.369 -86.016z"/>
    <path id="_199" class="fil200" d="M11.615 -33.708l-2.363 85.8 85.801 2.363 2.363 -85.801 -85.801 -2.362zm-0.315 -0.333l86.448 2.381 -2.381 86.447 -86.447 -2.38 2.38 -86.448z"/>
    <path id="_200" class="fil201" d="M11.405 -33.93l-2.375 86.232 86.233 2.375 2.374 -86.232 -86.232 -2.375zm-0.314 -0.332l86.878 2.392 -2.392 86.879 -86.879 -2.392 2.393 -86.879z"/>
    <path id="_201" class="fil202" d="M11.195 -34.151l-2.386 86.663 86.663 2.386 2.387 -86.663 -86.664 -2.386zm-0.314 -0.333l87.31 2.405 -2.404 87.31 -87.31 -2.405 2.404 -87.31z"/>
    <path id="_202" class="fil203" d="M10.986 -34.373l-2.399 87.094 87.095 2.399 2.398 -87.095 -87.094 -2.398zm-0.315 -0.332l87.741 2.416 -2.416 87.741 -87.741 -2.416 2.416 -87.741z"/>
    <path id="_203" class="fil204" d="M10.776 -34.594l-2.41 87.525 87.525 2.41 2.411 -87.525 -87.526 -2.41zm-0.314 -0.333l88.172 2.428 -2.428 88.173 -88.172 -2.428 2.428 -88.173z"/>
    <path id="_204" class="fil205" d="M10.566 -34.816l-2.422 87.957 87.957 2.422 2.422 -87.957 -87.957 -2.422zm-0.314 -0.332l88.603 2.44 -2.439 88.603 -88.604 -2.44 2.44 -88.603z"/>
    <path id="_205" class="fil206" d="M10.357 -35.037l-2.434 88.387 88.388 2.434 2.434 -88.388 -88.388 -2.433zm-0.315 -0.333l89.035 2.452 -2.452 89.035 -89.034 -2.452 2.451 -89.035z"/>
    <path id="_206" class="fil207" d="M10.147 -35.259l-2.446 88.819 88.819 2.446 2.446 -88.819 -88.819 -2.446zm-0.314 -0.332l89.465 2.463 -2.463 89.466 -89.466 -2.464 2.464 -89.465z"/>
    <path id="_207" class="fil208" d="M9.938 -35.481l-2.458 89.251 89.25 2.457 2.458 -89.25 -89.25 -2.458zm-0.315 -0.332l89.897 2.476 -2.476 89.897 -89.896 -2.476 2.475 -89.897z"/>
    <path id="_208" class="fil209" d="M9.728 -35.702l-2.47 89.681 89.682 2.47 2.469 -89.681 -89.681 -2.47zm-0.315 -0.332l90.328 2.487 -2.487 90.328 -90.328 -2.487 2.487 -90.328z"/>
    <path id="_209" class="fil210" d="M9.518 -35.924l-2.481 90.113 90.112 2.481 2.482 -90.112 -90.113 -2.482zm-0.314 -0.332l90.759 2.499 -2.499 90.76 -90.759 -2.5 2.499 -90.759z"/>
    <path id="_210" class="fil211" d="M9.309 -36.145l-2.494 90.544 90.544 2.493 2.493 -90.544 -90.543 -2.493zm-0.315 -0.332l91.191 2.511 -2.512 91.19 -91.19 -2.511 2.511 -91.19z"/>
    <path id="_211" class="fil212" d="M9.099 -36.367l-2.505 90.975 90.975 2.505 2.505 -90.974 -90.975 -2.506zm-0.315 -0.332l91.622 2.523 -2.523 91.622 -91.621 -2.523 2.522 -91.622z"/>
    <path id="_212" class="fil213" d="M8.889 -36.588l-2.517 91.406 91.406 2.517 2.517 -91.406 -91.406 -2.517zm-0.314 -0.332l92.053 2.534 -2.535 92.053 -92.053 -2.535 2.535 -92.052z"/>
    <path id="_213" class="fil214" d="M8.68 -36.81l-2.529 91.838 91.837 2.528 2.529 -91.837 -91.837 -2.529zm-0.315 -0.332l92.484 2.547 -2.547 92.484 -92.484 -2.547 2.547 -92.484z"/>
    <path id="_214" class="fil215" d="M8.47 -37.031l-2.541 92.268 92.269 2.541 2.54 -92.268 -92.268 -2.541zm-0.314 -0.332l92.915 2.558 -2.559 92.915 -92.915 -2.558 2.559 -92.915z"/>
    <path id="_215" class="fil216" d="M8.26 -37.253l-2.552 92.7 92.699 2.552 2.553 -92.699 -92.7 -2.553zm-0.314 -0.332l93.346 2.571 -2.57 93.346 -93.347 -2.571 2.571 -93.346z"/>
    <path id="_216" class="fil217" d="M8.051 -37.474l-2.565 93.13 93.131 2.565 2.564 -93.131 -93.13 -2.564zm-0.315 -0.332l93.778 2.582 -2.583 93.777 -93.777 -2.582 2.582 -93.777z"/>
    <path id="_217" class="fil218" d="M7.841 -37.696l-2.576 93.562 93.561 2.576 2.577 -93.561 -93.562 -2.577zm-0.314 -0.332l94.208 2.594 -2.594 94.209 -94.209 -2.594 2.595 -94.209z"/>
    <path id="_218" class="fil219" d="M7.631 -37.917l-2.588 93.993 93.993 2.588 2.588 -93.993 -93.993 -2.588zm-0.314 -0.332l94.64 2.606 -2.606 94.639 -94.64 -2.606 2.606 -94.639z"/>
    <path id="_219" class="fil220" d="M7.422 -38.139l-2.6 94.424 94.424 2.601 2.6 -94.425 -94.424 -2.6zm-0.315 -0.332l95.071 2.618 -2.618 95.071 -95.071 -2.618 2.618 -95.071z"/>
    <path id="_220" class="fil221" d="M7.212 -38.36l-2.612 94.855 94.855 2.612 2.612 -94.855 -94.855 -2.612zm-0.314 -0.333l95.502 2.63 -2.63 95.502 -95.502 -2.629 2.63 -95.503z"/>
    <path id="_221" class="fil222" d="M7.003 -38.582l-2.624 95.287 95.286 2.624 2.624 -95.287 -95.286 -2.624zm-0.315 -0.332l95.933 2.642 -2.641 95.933 -95.934 -2.642 2.642 -95.933z"/>
    <path id="_222" class="fil223" d="M6.793 -38.803l-2.636 95.717 95.718 2.636 2.635 -95.717 -95.717 -2.636zm-0.315 -0.333l96.365 2.654 -2.654 96.364 -96.364 -2.653 2.653 -96.365z"/>
    <path id="_223" class="fil224" d="M6.583 -39.025l-2.647 96.149 96.148 2.648 2.648 -96.149 -96.149 -2.648zm-0.314 -0.332l96.795 2.665 -2.665 96.796 -96.796 -2.666 2.666 -96.795z"/>
    <path id="_224" class="fil225" d="M6.374 -39.246l-2.66 96.58 96.58 2.659 2.659 -96.58 -96.579 -2.659zm-0.315 -0.333l97.227 2.678 -2.678 97.226 -97.226 -2.677 2.677 -97.227z"/>
    <path id="_225" class="fil226" d="M6.164 -39.468l-2.671 97.011 97.011 2.672 2.671 -97.011 -97.011 -2.672zm-0.315 -0.332l97.658 2.689 -2.689 97.658 -97.658 -2.689 2.689 -97.658z"/>
    <path id="_226" class="fil227" d="M5.954 -39.689l-2.683 97.442 97.442 2.683 2.684 -97.442 -97.443 -2.683zm-0.314 -0.333l98.089 2.701 -2.701 98.089 -98.089 -2.701 2.701 -98.089z"/>
    <path id="_227" class="fil228" d="M5.745 -39.911l-2.696 97.874 97.874 2.695 2.695 -97.874 -97.873 -2.695zm-0.315 -0.332l98.52 2.713 -2.713 98.52 -98.52 -2.713 2.713 -98.52z"/>
    <path id="_228" class="fil229" d="M5.535 -40.132l-2.707 98.304 98.305 2.707 2.707 -98.304 -98.305 -2.707zm-0.314 -0.333l98.951 2.725 -2.725 98.951 -98.951 -2.724 2.725 -98.952z"/>
    <path id="_229" class="fil230" d="M5.325 -40.354l-2.719 98.736 98.736 2.719 2.719 -98.736 -98.736 -2.719zm-0.314 -0.332l99.382 2.737 -2.736 99.382 -99.383 -2.737 2.737 -99.382z"/>
    <path id="_230" class="fil231" d="M5.116 -40.575l-2.731 99.166 99.167 2.731 2.731 -99.167 -99.167 -2.73zm-0.315 -0.333l99.814 2.749 -2.749 99.813 -99.813 -2.748 2.748 -99.814z"/>
    <path id="_231" class="fil232" d="M4.906 -40.797l-2.743 99.598 99.598 2.743 2.743 -99.598 -99.598 -2.743zm-0.314 -0.332l100.244 2.76 -2.76 100.245 -100.245 -2.76 2.761 -100.245z"/>
    <path id="_232" class="fil233" d="M4.696 -41.018l-2.754 100.029 100.029 2.754 2.755 -100.029 -100.03 -2.754zm-0.314 -0.333l100.676 2.773 -2.772 100.676 -100.676 -2.773 2.772 -100.676z"/>
    <path id="_233" class="fil234" d="M4.487 -41.24l-2.767 100.46 100.461 2.767 2.766 -100.461 -100.46 -2.766zm-0.315 -0.332l101.107 2.784 -2.784 101.107 -101.107 -2.784 2.784 -101.107z"/>
    <path id="_234" class="fil235" d="M4.277 -41.461l-2.778 100.891 100.891 2.778 2.779 -100.891 -100.892 -2.778zm-0.314 -0.333l101.538 2.796 -2.796 101.539 -101.538 -2.796 2.796 -101.539z"/>
    <path id="_235" class="fil236" d="M4.068 -41.683l-2.791 101.323 101.323 2.79 2.79 -101.323 -101.322 -2.79zm-0.315 -0.332l101.969 2.808 -2.807 101.969 -101.97 -2.808 2.808 -101.969z"/>
    <path id="_236" class="fil237" d="M3.858 -41.905l-2.802 101.754 101.754 2.802 2.802 -101.753 -101.754 -2.803zm-0.315 -0.332l102.401 2.82 -2.82 102.401 -102.4 -2.82 2.819 -102.401z"/>
    <path id="_237" class="fil238" d="M3.648 -42.126l-2.814 102.185 102.185 2.814 2.814 -102.185 -102.185 -2.814zm-0.314 -0.332l102.831 2.831 -2.831 102.832 -102.832 -2.832 2.832 -102.831z"/>
    <path id="_238" class="fil239" d="M3.439 -42.348l-2.826 102.617 102.616 2.825 2.826 -102.616 -102.616 -2.826zm-0.315 -0.332l103.263 2.844 -2.844 103.263 -103.262 -2.844 2.843 -103.263z"/>
    <path id="_239" class="fil240" d="M3.229 -42.569l-2.838 103.047 103.048 2.838 2.837 -103.047 -103.047 -2.838zm-0.315 -0.332l103.695 2.855 -2.856 103.694 -103.694 -2.855 2.855 -103.694z"/>
    <path id="_240" class="fil241" d="M3.019 -42.791l-2.849 103.479 103.478 2.849 2.85 -103.478 -103.479 -2.85zm-0.314 -0.332l104.125 2.867 -2.867 104.126 -104.125 -2.868 2.867 -104.125z"/>
    <path id="_241" class="fil242" d="M2.81 -43.012l-2.862 103.91 103.91 2.861 2.861 -103.91 -103.909 -2.861zm-0.315 -0.332l104.557 2.879 -2.88 104.556 -104.556 -2.879 2.879 -104.556z"/>
    <path id="_242" class="fil243" d="M2.6 -43.234l-2.873 104.341 104.341 2.873 2.873 -104.34 -104.341 -2.874zm-0.314 -0.332l104.987 2.891 -2.891 104.988 -104.988 -2.891 2.892 -104.988z"/>
    <path id="_243" class="fil244" d="M2.39 -43.455l-2.885 104.772 104.772 2.885 2.885 -104.772 -104.772 -2.885zm-0.314 -0.332l105.419 2.903 -2.903 105.418 -105.419 -2.903 2.903 -105.418z"/>
    <path id="_244" class="fil245" d="M2.181 -43.677l-2.897 105.203 105.203 2.897 2.897 -105.203 -105.203 -2.897zm-0.315 -0.332l105.85 2.915 -2.915 105.85 -105.85 -2.915 2.915 -105.85z"/>
    <path id="_245" class="fil246" d="M1.971 -43.898l-2.909 105.634 105.634 2.909 2.909 -105.634 -105.634 -2.909zm-0.314 -0.332l106.281 2.926 -2.927 106.281 -106.281 -2.926 2.927 -106.281z"/>
    <path id="_246" class="fil247" d="M1.761 -44.12l-2.92 106.066 106.065 2.92 2.921 -106.065 -106.066 -2.921zm-0.314 -0.332l106.712 2.939 -2.938 106.712 -106.713 -2.939 2.939 -106.712z"/>
    <path id="_247" class="fil248" d="M1.552 -44.341l-2.933 106.496 106.497 2.933 2.932 -106.497 -106.496 -2.932zm-0.21 -0.222l106.928 2.945 -2.945 106.927 -106.927 -2.944 2.944 -106.928z"/>
   </g>
  </g>
 </g>
</svg>
